<?xml version="1.0" encoding="UTF-8"?>
<svg xmlns="http://www.w3.org/2000/svg" viewBox="0 0 1064.81 907.71">
  <defs>
    <style>
      .cls-1 {
        fill: none;
        stroke-miterlimit: 10;
        stroke-width: 15px;
      }

      .cls-1, .cls-2 {
        stroke: #fff;
      }

      .cls-2 {
        fill: #fff;
        font-family: Incised901BT-NordItalic, 'Incised 901 Nord BT';
        font-size: 210.44px;
        font-style: italic;
        letter-spacing: 0em;
      }
    </style>
  </defs>
  <g id="NE">
    <g id="NE-2" data-name="NE">
      <path class="cls-1" d="M110.72,19.01L7.74,550.81c-1.54,7.93,4.54,15.29,12.61,15.29h182.2c5.42,0,10.1-3.81,11.19-9.11l48.07-232.06,76.01,234.4c1.31,4.04,5.07,6.79,9.31,6.82l142.56.89,93.36-462.21c1.77-8.75,9.39-15.1,18.32-15.25l38.56-.64,15.95-.27,11.6-69.54c1.02-6.09-3.68-11.63-9.85-11.63h-186.01c-5.95,0-11.07,4.19-12.25,10.02l-38.89,191.97-55.37-191.1c-1.87-6.45-7.77-10.88-14.49-10.88H124.67c-6.81,0-12.65,4.83-13.95,11.51Z"/>
      <path class="cls-1" d="M658.43,88.66h-2.52s89.99,0,89.99,0h90.58s83.89,0,83.89,0h126.48c6.51,0,11.44,5.89,10.27,12.3l-26.91,148.32c-2.15,11.87-12.49,20.5-24.56,20.5h-233.79l-9.96,46.69h237.28c6.83,0,12.05,6.09,11,12.84l-17.34,111.43c-1.5,9.64-9.8,16.74-19.55,16.74h-241.27l-7.47,45.29h236.87c7.49,0,13.19,6.75,11.92,14.13l-20.89,122.03c-1.91,11.16-11.59,19.32-22.91,19.32h-443.49c-9.33,0-16.21-8.73-14.02-17.8l17.68-73.44,39.1-193.57,54.62-271.13c1.6-7.95,8.59-13.68,16.71-13.68h58.29Z"/>
    </g>
  </g>
  <g id="Text">
    <text class="cls-2" transform="translate(28.65 857.12) scale(.76 1)"><tspan x="0" y="0">WRESTLE</tspan></text>
  </g>
</svg>