<?xml version="1.0" encoding="UTF-8"?>
<svg id="Layer_1" data-name="Layer 1" xmlns="http://www.w3.org/2000/svg" viewBox="0 0 1728.19 675.63">
  <defs>
    <style>
      .cls-1 {
        fill: #fff;
      }

      .cls-2 {
        letter-spacing: 0em;
      }

      .cls-3 {
        letter-spacing: -.02em;
      }

      .cls-4 {
        fill: #2929e5;
      }

      .cls-5 {
        font-family: Montserrat-Bold, HTYYRJ+Montserrat-Bold;
        font-size: 264.56px;
        font-weight: 700;
      }

      .cls-6 {
        font-family: Montserrat-Regular, Montserrat;
        font-size: 237.34px;
      }
    </style>
  </defs>
  <text class="cls-5" transform="translate(623.46 288.82)"><tspan x="0" y="0">Braxton</tspan></text>
  <text class="cls-6" transform="translate(619.56 515.92)"><tspan x="0" y="0">Media </tspan><tspan class="cls-3" x="796.99" y="0">C</tspan><tspan class="cls-2" x="959.81" y="0">o</tspan></text>
  <g>
    <path class="cls-4" d="M144.17,118.32l338.87,187.52c66.34,36.71,66.92,131.89,1.03,169.41l-329.35,187.52c-63.81,36.33-143.31-8.55-145.17-81.95L.03,205.78c-1.91-75.07,78.44-123.82,144.14-87.46Z"/>
    <path class="cls-1" d="M174.28,57.95l338.87,187.52c66.34,36.71,66.92,131.89,1.03,169.41l-329.35,187.52c-63.81,36.33-143.31-8.55-145.17-81.95l-9.52-375.04c-1.91-75.07,78.44-123.82,144.14-87.46Z"/>
    <path d="M197.5,12.3l338.87,187.52c66.34,36.71,66.92,131.89,1.03,169.41l-329.35,187.52c-63.81,36.33-143.31-8.55-145.17-81.95l-9.52-375.04C51.46,24.69,131.8-24.06,197.5,12.3Z"/>
  </g>
</svg>