<?xml version="1.0" encoding="UTF-8"?>
<svg xmlns="http://www.w3.org/2000/svg" version="1.1" viewBox="0 0 1920 1080">
  <!-- Generator: Adobe Illustrator 30.0.0, SVG Export Plug-In . SVG Version: 2.1.1 Build 123)  -->
  <defs>
    <style>
      .st0, .st1, .st2 {
        fill: #fff;
      }

      .st1 {
        font-family: Montserrat-Black, Montserrat;
        font-size: 264.56px;
        font-weight: 800;
      }

      .st3 {
        fill: #2929e5;
      }

      .st2 {
        font-family: Montserrat-Regular, Montserrat;
        font-size: 237.34px;
      }

      .st4 {
        fill: #191818;
      }

      .st5 {
        display: none;
      }
    </style>
  </defs>
  <g id="Layer_2" class="st5">
    <rect class="st4" width="1920" height="1080"/>
  </g>
  <g id="Layer_1">
    <text class="st1" transform="translate(654.59 491)"><tspan x="0" y="0">Braxton</tspan></text>
    <text class="st2" transform="translate(650.69 718.1)"><tspan x="0" y="0">Media Co</tspan></text>
    <g>
      <path class="st3" d="M175.3,320.51l338.87,187.52c66.34,36.71,66.92,131.89,1.03,169.41l-329.35,187.52c-63.81,36.33-143.31-8.55-145.17-81.95l-9.52-375.04c-1.91-75.07,78.44-123.82,144.14-87.46Z"/>
      <path class="st0" d="M205.41,260.13l338.87,187.52c66.34,36.71,66.92,131.89,1.03,169.41l-329.35,187.52c-63.81,36.33-143.31-8.55-145.17-81.95l-9.52-375.04c-1.91-75.07,78.44-123.82,144.14-87.46Z"/>
      <path d="M228.63,214.48l338.87,187.52c66.34,36.71,66.92,131.89,1.03,169.41l-329.35,187.52c-63.81,36.33-143.31-8.55-145.17-81.95l-9.52-375.04c-1.91-75.07,78.44-123.82,144.14-87.46Z"/>
    </g>
  </g>
</svg>