<?xml version="1.0" encoding="UTF-8"?>
<svg id="Layer_1" data-name="Layer 1" xmlns="http://www.w3.org/2000/svg" viewBox="0 0 117.09 134.88">
  <defs>
    <style>
      .cls-1 {
        fill: #fff;
      }

      .cls-2 {
        fill: #2929e5;
      }
    </style>
  </defs>
  <path class="cls-2" d="M28.78,23.62l67.65,37.44c13.25,7.33,13.36,26.33.21,33.82l-65.75,37.44c-12.74,7.25-28.61-1.71-28.98-16.36L0,41.08c-.38-14.99,15.66-24.72,28.78-17.46Z"/>
  <path class="cls-1" d="M34.79,11.57l67.65,37.44c13.25,7.33,13.36,26.33.21,33.82l-65.75,37.44c-12.74,7.25-28.61-1.71-28.98-16.36l-1.9-74.87c-.38-14.99,15.66-24.72,28.78-17.46Z"/>
  <path d="M39.43,2.45l67.65,37.44c13.25,7.33,13.36,26.33.21,33.82l-65.75,37.44c-12.74,7.25-28.61-1.71-28.98-16.36l-1.9-74.87c-.38-14.99,15.66-24.72,28.78-17.46Z"/>
</svg>